<svg xmlns="http://www.w3.org/2000/svg" width="900" height="600"><path fill="#001220" d="M0 0h900v600H0z"/><path fill="#012d4e" d="M900 486.7c-62-10.8-124.1-21.6-183.7-43.2-59.6-21.7-116.7-54.3-160.5-99.3-43.7-45.1-74-102.6-95.6-162C438.7 122.7 426 61.4 413.3 0H900Z"/><path fill="#3764b5" d="M900 324.5c-41.4-7.2-82.7-14.4-122.5-28.9-39.7-14.4-77.8-36.1-107-66.1-29.1-30.1-49.3-68.4-63.7-108.1C592.5 81.8 584 40.9 575.5 0H900Z"/><path fill="#667eea" d="M900 162.2c-20.7-3.6-41.4-7.2-61.2-14.4-19.9-7.2-38.9-18.1-53.5-33.1-14.6-15-24.7-34.2-31.9-54C746.2 40.9 742 20.5 737.8 0H900Z"/><path fill="#012d4e" d="M0 113.3c54.5 38.5 109 77.1 157.3 107 48.3 29.9 90.4 51.1 143.2 79.2 52.8 28.1 116.4 63 149.2 114.2 32.8 51.3 34.9 118.8 37 186.3H0Z"/><path fill="#3764b5" d="M0 275.5c36.3 25.7 72.7 51.4 104.9 71.4 32.2 19.9 60.2 34 95.4 52.8 35.3 18.7 77.6 42 99.5 76.1C321.7 510 323.1 555 324.5 600H0Z"/><path fill="#667eea" d="M0 437.8c18.2 12.8 36.3 25.7 52.4 35.6 16.1 10 30.2 17.1 47.8 26.4 17.6 9.4 38.8 21 49.7 38.1 10.9 17.1 11.6 39.6 12.3 62.1H0Z"/></svg>